<svg width="6" height="28" viewBox="0 0 6 28" fill="none" xmlns="http://www.w3.org/2000/svg">
<path d="M0.8125 3.02344C0.8125 3.6036 1.04297 4.16 1.4532 4.57023C1.86344 4.98047 2.41984 5.21094 3 5.21094C3.58016 5.21094 4.13656 4.98047 4.5468 4.57023C4.95703 4.16 5.1875 3.6036 5.1875 3.02344C5.1875 2.44328 4.95703 1.88688 4.5468 1.47664C4.13656 1.06641 3.58016 0.835938 3 0.835938C2.41984 0.835938 1.86344 1.06641 1.4532 1.47664C1.04297 1.88688 0.8125 2.44328 0.8125 3.02344ZM0.8125 13.9609C0.8125 14.5411 1.04297 15.0975 1.4532 15.5077C1.86344 15.918 2.41984 16.1484 3 16.1484C3.58016 16.1484 4.13656 15.918 4.5468 15.5077C4.95703 15.0975 5.1875 14.5411 5.1875 13.9609C5.1875 13.3808 4.95703 12.8244 4.5468 12.4141C4.13656 12.0039 3.58016 11.7734 3 11.7734C2.41984 11.7734 1.86344 12.0039 1.4532 12.4141C1.04297 12.8244 0.8125 13.3808 0.8125 13.9609V13.9609ZM0.8125 24.8984C0.8125 25.4786 1.04297 26.035 1.4532 26.4452C1.86344 26.8555 2.41984 27.0859 3 27.0859C3.58016 27.0859 4.13656 26.8555 4.5468 26.4452C4.95703 26.035 5.1875 25.4786 5.1875 24.8984C5.1875 24.3183 4.95703 23.7619 4.5468 23.3516C4.13656 22.9414 3.58016 22.7109 3 22.7109C2.41984 22.7109 1.86344 22.9414 1.4532 23.3516C1.04297 23.7619 0.8125 24.3183 0.8125 24.8984V24.8984Z" fill="black"/>
</svg>
